<svg xmlns="http://www.w3.org/2000/svg" viewBox="0 0 295.77 166.39"><defs><style>.cls-1{fill:#27aae1;}.cls-1,.cls-2,.cls-3,.cls-4,.cls-5{stroke:#231f20;stroke-miterlimit:10;stroke-width:8px;}.cls-2{fill:#fff200;}.cls-3{fill:#ed1c24;}.cls-4{fill:#f7f4ac;}.cls-5{fill:none;}</style></defs><title>Asset 1</title><g id="Layer_2" data-name="Layer 2"><g id="Layer_1-2" data-name="Layer 1"><rect class="cls-1" x="131.61" y="11.36" width="160.16" height="63.52"/><rect class="cls-2" x="131.69" y="70.39" width="160" height="92"/><rect class="cls-3" x="4" y="4" width="127.69" height="158.39"/><path class="cls-4" d="M64,15.25v0Z"/><polyline class="cls-5" points="97.44 36.32 64.02 23.68 85.93 61.61 97.44 61.61 97.44 41.38 64.02 61.61 97.44 115.55 114.59 86.05 125.54 115.55 141.56 79.31 115.43 148.42 170.22 108.81 178.64 108.81 154.38 99.54 157.57 86.05 178.64 86.05 183.7 97.01 187.07 104.59 187.07 30.42 187.07 112.18 227.53 95.32 209.83 79.31 192.75 99.54 215.73 124.82 227.53 118.08 241.86 114.71 241.86 80.15 241.86 73.41 256.19 80.99"/></g></g></svg>
