<?xml version="1.0" encoding="utf-8"?>
<!-- Generator: Adobe Illustrator 24.0.3, SVG Export Plug-In . SVG Version: 6.00 Build 0)  -->
<svg version="1.1" id="Layer_1" xmlns="http://www.w3.org/2000/svg" xmlns:xlink="http://www.w3.org/1999/xlink" x="0px" y="0px"
	 viewBox="0 0 792 612" style="enable-background:new 0 0 792 612;" xml:space="preserve">
<style type="text/css">
	.st0{fill:#FFFFFF;stroke:#000000;stroke-miterlimit:10;}
	.st1{fill:#27AAE1;stroke:#000000;stroke-width:8;stroke-miterlimit:10;}
	.st2{fill:#FFF200;stroke:#000000;stroke-width:8;stroke-miterlimit:10;}
	.st3{fill:#ED1C24;stroke:#000000;stroke-width:8;stroke-miterlimit:10;}
	.st4{fill:#F7F4AC;stroke:#000000;stroke-width:8;stroke-miterlimit:10;}
	.st5{fill:none;stroke:#000000;stroke-width:8;stroke-miterlimit:10;}
</style>
<path class="st0" d="M170,320"/>
<g>
	<rect x="371.61" y="230" class="st1" width="160.16" height="63.52"/>
	<rect x="371.69" y="289.03" class="st2" width="160" height="92"/>
	<rect x="244" y="222.64" class="st3" width="127.69" height="158.39"/>
	<g>
		<path class="st4" d="M489.44,283.62"/>
		<path class="st4" d="M304.01,233.89v101.14V233.89z"/>
		<polyline class="st5" points="337.44,254.96 304.01,242.32 325.93,280.25 337.44,280.25 337.44,260.02 304.01,280.25 
			337.44,334.19 354.59,304.69 365.54,334.19 381.56,297.95 355.43,367.06 410.22,327.45 418.64,327.45 394.38,318.18 
			397.57,304.69 418.64,304.69 423.7,315.65 427.07,323.23 427.07,249.06 427.07,330.82 467.53,313.96 449.83,297.95 432.75,318.18 
			455.73,343.46 467.53,336.72 481.86,333.35 481.86,298.79 481.86,292.05 496.19,299.63 		"/>
	</g>
</g>
</svg>
